<svg width="107" height="28" viewBox="0 0 107 28" fill="none" xmlns="http://www.w3.org/2000/svg">
<path fill-rule="evenodd" clip-rule="evenodd" d="M37.5616 5.56354C36.1204 5.56354 35.0248 5.85183 33.9872 6.54362L32.7188 8.41725V0H28.1932V21.3314H32.7188V14.2115C32.7188 10.2909 34.0448 8.70554 35.8321 8.67687C37.5905 8.67687 38.4554 9.65695 38.5706 11.2134C38.6282 11.9917 38.6282 12.77 38.6282 13.3466V21.3314H43.1538V12.6548C43.1538 11.4154 43.1251 10.5792 43.0097 9.80084C42.664 7.1202 40.7901 5.56354 37.5616 5.56354ZM22.7159 15.4221C22.7159 15.9409 22.7159 16.4598 22.7446 16.8633C22.8601 18.3911 23.3788 18.7372 25.6851 18.5931V21.4755C24.7626 21.6199 23.8691 21.7061 22.8887 21.7061C19.5163 21.7061 18.4207 20.6109 18.2477 18.3624C18.1901 17.5841 18.1901 16.8923 18.1901 16.0274V8.96506H15.8553V6.08241H18.1901V2.21968H22.7159V6.08241H25.9731V8.96506H22.7159V15.4221ZM9.36866 14.5861C6.54362 14.3844 4.64106 15.0762 4.64106 16.8633C4.64106 18.0164 5.477 18.6217 6.7167 18.6217C8.07135 18.6217 9.36866 17.6416 9.36866 15.7393V14.5861ZM9.42626 19.0831L8.73447 20.7263C7.63917 21.4181 6.34187 21.735 4.92935 21.735C2.335 21.735 0 20.1497 0 17.2381C0 13.8944 2.96918 11.9342 8.38857 11.9342H9.36866V11.6748V11.6748C9.36866 11.271 9.36866 10.8676 9.31105 10.3486C9.22451 9.42611 8.53272 8.67671 7.17781 8.67671C5.76529 8.67671 4.98696 9.54158 4.87174 11.0693H0.547906C0.634187 7.55248 3.60337 5.56364 7.35088 5.56364C11.9054 5.56364 13.5483 7.55248 13.779 10.291C13.8366 11.0117 13.8656 11.8763 13.8656 12.7701V17.4399C13.8656 18.593 13.9232 19.6307 14.1539 21.3315H9.74349L9.42626 19.0831ZM55.5211 21.6486C53.7627 26.1168 52.0909 27.3852 48.7468 27.3852C47.9685 27.3852 47.4209 27.3563 46.7867 27.2697V24.2429C47.1902 24.3006 47.5939 24.3006 48.055 24.3006C49.3523 24.3006 50.217 23.8394 50.7935 22.5135L50.9953 22.0521L44.6824 5.96699H49.7269L53.2438 17.8435L56.7319 5.96699H61.661L55.5211 21.6486ZM72.587 5.56355C71.1458 5.56355 70.0502 5.85184 69.0125 6.54364L67.7441 8.41727V5.96706H63.2183V21.3314H67.7441V14.2115C67.7441 10.2909 69.0701 8.67688 70.8575 8.67688C72.6159 8.67688 73.4805 9.65697 73.596 11.2134C73.6536 11.9917 73.6536 12.77 73.6536 13.3466V21.3314H78.1792V12.6548C78.1792 11.4154 78.1505 10.5792 78.035 9.80085C77.6891 7.12022 75.8155 5.56355 72.587 5.56355ZM89.9988 14.5861C87.1737 14.3844 85.2712 15.0762 85.2712 16.8633C85.2712 18.0164 86.1071 18.6217 87.3468 18.6217C88.7015 18.6217 89.9988 17.6416 89.9988 15.7393V14.5861ZM90.0564 19.0831L89.3646 20.7263C88.2693 21.4181 86.972 21.735 85.5595 21.735C82.9651 21.735 80.6301 20.1497 80.6301 17.2381C80.6301 13.8944 83.5993 11.9342 89.0187 11.9342H89.9988V11.6748C89.9988 11.2711 89.9988 10.8676 89.9412 10.3486C89.8546 9.42611 89.1628 8.67671 87.8079 8.67671C86.3954 8.67671 85.6171 9.54158 85.5019 11.0693H81.178C81.2643 7.55248 84.2335 5.56364 87.981 5.56364C92.5355 5.56364 94.1785 7.55248 94.4091 10.291C94.4667 11.0117 94.4957 11.8763 94.4957 12.7701V17.4399C94.4957 18.593 94.5533 19.6307 94.784 21.3315H90.3736L90.0564 19.0831ZM104.73 21.307H98.0832L97.9928 21.3316C97.3294 21.3316 96.6593 20.757 96.6593 20.0942C96.6593 19.4497 97.1669 18.924 97.8044 18.8945C97.8024 18.8651 97.8008 18.8348 97.8008 18.8044C97.8008 18.0599 98.4045 17.4559 99.1493 17.4559C99.3094 17.4559 99.4629 17.483 99.6052 17.5342C99.9493 16.6032 100.845 15.938 101.895 15.938C102.993 15.938 103.922 16.66 104.228 17.6577C104.388 17.6127 104.556 17.582 104.73 17.582C105.752 17.582 106.58 18.4288 106.58 19.4507C106.58 20.4726 105.752 21.307 104.73 21.307Z" fill="#2E3555"/>
</svg>